<svg xmlns="http://www.w3.org/2000/svg" xmlns:xlink="http://www.w3.org/1999/xlink" xmlns:lucid="lucid" width="746" height="1536"><g transform="translate(-306 -58)" lucid:page-tab-id=".Q4MUjXso07N"><path d="M359.77 859.75A19.75 19.75 0 0 1 379.52 840a19.75 19.75 0 0 1 19.75 19.75 19.75 19.75 0 0 1-19.75 19.75 19.75 19.75 0 0 1-19.75-19.75" stroke="#333" fill="#fff"/><path d="M339.52 845a5 5 0 0 1 5-5h70a5 5 0 0 1 5 5v148a5 5 0 0 1-5 5h-70a5 5 0 0 1-5-5z" fill="none"/><path d="M379.52 879.5v55.3l40 63.2m-40-63.2l-40 63.2m0-98.75h80" stroke="#333" fill="none"/><use xlink:href="#a" transform="matrix(1,0,0,1,259.52130701940064,998) translate(89.31484375 18.011979166666666)"/><path d="M253.15 78a8 8 0 0 1 8-8h836.75a8 8 0 0 1 8 8v25.16a8 8 0 0 1-8 8H261.15a8 8 0 0 1-8-8z" stroke="#000" stroke-opacity="0" stroke-width="2" fill="#fff" fill-opacity="0"/><use xlink:href="#b" transform="matrix(1,0,0,1,273.14655278534315,69.99999999994924) translate(97.56421549479165 31.211126302083333)"/><use xlink:href="#c" transform="matrix(1,0,0,1,273.14655278534315,69.99999999994924) translate(217.29465169270833 31.211126302083333)"/><use xlink:href="#d" transform="matrix(1,0,0,1,273.14655278534315,69.99999999994924) translate(252.969677734375 31.211126302083333)"/><use xlink:href="#e" transform="matrix(1,0,0,1,273.14655278534315,69.99999999994924) translate(316.10351888020836 31.211126302083333)"/><use xlink:href="#f" transform="matrix(1,0,0,1,273.14655278534315,69.99999999994924) translate(351.77854492187504 31.211126302083333)"/><use xlink:href="#g" transform="matrix(1,0,0,1,273.14655278534315,69.99999999994924) translate(401.3496842447917 31.211126302083333)"/><use xlink:href="#h" transform="matrix(1,0,0,1,273.14655278534315,69.99999999994924) translate(416.18649414062503 31.211126302083333)"/><use xlink:href="#i" transform="matrix(1,0,0,1,273.14655278534315,69.99999999994924) translate(569.2104459635417 31.211126302083333)"/><use xlink:href="#j" transform="matrix(1,0,0,1,273.14655278534315,69.99999999994924) translate(604.8854720052084 31.211126302083333)"/><path d="M486.4 109.8H878.8M486.42 109.8h-1.03M878.8 109.8h1.02" stroke="#a9afb8" stroke-width="2" fill="none"/><path d="M253.15 119.16a8 8 0 0 1 8-8h837.7a8 8 0 0 1 8 8V122a8 8 0 0 1-8 8h-837.7a8 8 0 0 1-8-8z" stroke="#000" stroke-opacity="0" stroke-width="2" fill="#fff" fill-opacity="0"/><use xlink:href="#k" transform="matrix(1,0,0,1,273.1465527853436,111.15522395684805) translate(228.59033610026043 16.461006944444446)"/><use xlink:href="#l" transform="matrix(1,0,0,1,273.1465527853436,111.15522395684805) translate(270.68353271484375 16.461006944444446)"/><use xlink:href="#m" transform="matrix(1,0,0,1,273.1465527853436,111.15522395684805) translate(322.0914119466146 16.461006944444446)"/><use xlink:href="#n" transform="matrix(1,0,0,1,273.1465527853436,111.15522395684805) translate(376.52083251953127 16.461006944444446)"/><use xlink:href="#o" transform="matrix(1,0,0,1,273.1465527853436,111.15522395684805) translate(449.8157847764757 16.461006944444446)"/><use xlink:href="#p" transform="matrix(1,0,0,1,273.1465527853436,111.15522395684805) translate(462.54793484157983 16.461006944444446)"/><use xlink:href="#q" transform="matrix(1,0,0,1,273.1465527853436,111.15522395684805) translate(540.3092114257812 16.461006944444446)"/><use xlink:href="#r" transform="matrix(1,0,0,1,273.1465527853436,111.15522395684805) translate(557.0561911349827 16.461006944444446)"/><path d="M719.52 1072c0 33.14-35.82 60-80 60s-80-26.86-80-60 35.82-60 80-60 80 26.86 80 60z" stroke="#000" stroke-width="2" fill="#fff"/><use xlink:href="#s" transform="matrix(1,0,0,1,583.5213070194006,1036) translate(28.907846679687495 31.96212890625)"/><use xlink:href="#t" transform="matrix(1,0,0,1,583.5213070194006,1036) translate(21.539140624999995 52.216875)"/><path d="M719.52 859c0 33.14-35.82 60-80 60s-80-26.86-80-60 35.82-60 80-60 80 26.86 80 60z" stroke="#000" stroke-width="2" fill="#fff"/><use xlink:href="#s" transform="matrix(1,0,0,1,583.5213070194006,823) translate(28.907846679687495 31.96212890625)"/><use xlink:href="#u" transform="matrix(1,0,0,1,583.5213070194006,823) translate(25.609707031249997 52.216875)"/><path d="M719.52 433c0 33.14-35.82 60-80 60s-80-26.86-80-60 35.82-60 80-60 80 26.86 80 60z" stroke="#000" stroke-width="2" fill="#fff"/><use xlink:href="#v" transform="matrix(1,0,0,1,583.5213070194006,397) translate(34.069619140624994 21.834755859375)"/><use xlink:href="#w" transform="matrix(1,0,0,1,583.5213070194006,397) translate(24.138417968749998 42.089501953125)"/><use xlink:href="#x" transform="matrix(1,0,0,1,583.5213070194006,397) translate(27.4692529296875 62.344248046875)"/><path d="M719.52 220c0 33.14-35.82 60-80 60s-80-26.86-80-60 35.82-60 80-60 80 26.86 80 60z" stroke="#000" stroke-width="2" fill="#fff"/><use xlink:href="#y" transform="matrix(1,0,0,1,583.5213070194006,184) translate(8.677622070312495 31.96212890625)"/><use xlink:href="#z" transform="matrix(1,0,0,1,583.5213070194006,184) translate(57.24650878906251 31.96212890625)"/><use xlink:href="#A" transform="matrix(1,0,0,1,583.5213070194006,184) translate(1.8402148437499903 52.216875)"/><use xlink:href="#B" transform="matrix(1,0,0,1,583.5213070194006,184) translate(33.13780273437499 52.216875)"/><path d="M1019.52 980c0 33.14-35.82 60-80 60s-80-26.86-80-60 35.82-60 80-60 80 26.86 80 60z" stroke="#000" stroke-width="2" fill="#fff"/><use xlink:href="#C" transform="matrix(1,0,0,1,883.5213070194006,944) translate(1.2639599609374912 31.96212890625)"/><use xlink:href="#D" transform="matrix(1,0,0,1,883.5213070194006,944) translate(60.1318701171875 31.96212890625)"/><use xlink:href="#E" transform="matrix(1,0,0,1,883.5213070194006,944) translate(14.575039062499997 52.216875)"/><path d="M380.52 930h76.75a12 12 0 0 0 12-12v-47a12 12 0 0 1 12-12h76.75M380.53 930h-3.5" stroke="#333" fill="none"/><path d="M558.52 859V859.47h-.5v-.96h.52z" stroke="#333" stroke-width=".05" fill="#333"/><path d="M380.52 930h76.75a12 12 0 0 1 12 12v118a12 12 0 0 0 12 12h76.75M380.53 930h-3.5" stroke="#333" fill="none"/><path d="M558.52 1072V1072.46h-.5v-.94h.52z" stroke="#333" stroke-width=".05" fill="#333"/><path d="M719.52 646c0 33.14-35.82 60-80 60s-80-26.86-80-60 35.82-60 80-60 80 26.86 80 60z" stroke="#000" stroke-width="2" fill="#fff"/><use xlink:href="#y" transform="matrix(1,0,0,1,583.5213070194006,610) translate(9.474570312499992 31.96212890625)"/><use xlink:href="#F" transform="matrix(1,0,0,1,583.5213070194006,610) translate(58.04345703125001 31.96212890625)"/><use xlink:href="#G" transform="matrix(1,0,0,1,583.5213070194006,610) translate(34.997348632812496 52.216875)"/><path d="M790 967.98l.14 1.82.42 1.76.7 1.67.94 1.54 1.17 1.38 1.38 1.17 1.54.95 1.66.7 1.76.4 1.82.15h47.54v.96H801.5l-1.93-.16-1.9-.45-1.8-.75-1.68-1.03-1.5-1.28-1.27-1.5-1.02-1.66-.75-1.8-.45-1.9-.15-1.94v-57.46h.95zm-10.53-109.3l1.9.45 1.82.75 1.65 1.03 1.5 1.28 1.26 1.5 1.04 1.66.75 1.8.44 1.9.16 1.94v17.8h-.95v-17.76l-.15-1.82-.42-1.76-.7-1.67-.94-1.54-1.17-1.38-1.38-1.17-1.55-.95-1.67-.7-1.76-.4-1.82-.15h-56.48v-.96h56.52z" stroke="#333" stroke-width=".05" fill="#333"/><path d="M721.03 859.48h-.52l.02-.47v-.4l.5-.08z" fill="#333"/><path stroke="#333" stroke-width=".05" fill="#333"/><path d="M858.47 980l-18.03 10.4-.48-.8 15.8-9.13H849v-.95h6.73l-15.8-9.1.5-.83z" stroke="#333" stroke-width=".05" fill="#333"/><g><use xlink:href="#H" transform="matrix(1,0,0,1,734.8049984256506,888.7828710401743) translate(0.005000000000002558 17.4375)"/></g><path d="M790 1060.02l-.16 1.93-.45 1.9-.76 1.8-1.02 1.68-1.28 1.5-1.5 1.26-1.65 1.02-1.82.75-1.9.45-1.94.15h-56.52v-.94h56.48l1.82-.15 1.76-.42 1.67-.7 1.54-.94 1.37-1.17 1.17-1.38.95-1.54.68-1.67.42-1.76.15-1.82v-1.73h.95zm59.08-79.54h-47.54l-1.82.14-1.76.42-1.67.7-1.55.94-1.38 1.17-1.17 1.38-.95 1.54-.7 1.67-.4 1.76-.15 1.82v44.45h-.95v-44.5l.15-1.92.45-1.9.75-1.8 1.03-1.68 1.27-1.5 1.5-1.26 1.66-1.02 1.8-.75 1.9-.45 1.94-.15h47.58z" stroke="#333" stroke-width=".05" fill="#333"/><path d="M721.03 1072.47h-.52l.02-.46v-.4l.5-.07z" fill="#333"/><path stroke="#333" stroke-width=".05" fill="#333"/><path d="M858.47 980l-18.03 10.4-.48-.8 15.8-9.13H849v-.95h6.73l-15.8-9.1.5-.83z" stroke="#333" stroke-width=".05" fill="#333"/><g><use xlink:href="#H" transform="matrix(1,0,0,1,734.8049984256506,1036.4718768362184) translate(0.005000000000002558 17.4375)"/></g><path d="M380.52 930h76.75a12 12 0 0 0 12-12V658a12 12 0 0 1 12-12h76.75M380.53 930h-3.5" stroke="#333" fill="none"/><path d="M558.52 646V646.47h-.5v-.96h.52z" stroke="#333" stroke-width=".05" fill="#333"/><path d="M380.52 930h76.75a12 12 0 0 0 12-12V445a12 12 0 0 1 12-12h76.75M380.53 930h-3.5" stroke="#333" fill="none"/><path d="M558.52 433V433.47h-.5v-.96h.52z" stroke="#333" stroke-width=".05" fill="#333"/><path d="M380.52 930h76.75a12 12 0 0 0 12-12V232a12 12 0 0 1 12-12h76.75M380.53 930h-3.5" stroke="#333" fill="none"/><path d="M558.52 220V220.46h-.5v-.94h.52z" stroke="#333" stroke-width=".05" fill="#333"/><path d="M719.52 1285c0 33.14-35.82 60-80 60s-80-26.86-80-60 35.82-60 80-60 80 26.86 80 60z" stroke="#000" stroke-width="2" fill="#fff"/><g><use xlink:href="#I" transform="matrix(1,0,0,1,583.5213070194006,1249) translate(33.186845703124995 31.96212890625)"/><use xlink:href="#J" transform="matrix(1,0,0,1,583.5213070194006,1249) translate(14.575039062499997 52.216875)"/></g><path d="M719.52 1498c0 33.14-35.82 60-80 60s-80-26.86-80-60 35.82-60 80-60 80 26.86 80 60z" stroke="#000" stroke-width="2" fill="#fff"/><g><use xlink:href="#K" transform="matrix(1,0,0,1,583.5213070194006,1462) translate(29.6516650390625 31.96212890625)"/><use xlink:href="#L" transform="matrix(1,0,0,1,583.5213070194006,1462) translate(14.575039062499997 52.216875)"/></g><path d="M380.52 930h76.75a12 12 0 0 1 12 12v331a12 12 0 0 0 12 12h76.75M380.53 930h-3.5" stroke="#333" fill="none"/><path d="M558.52 1285V1285.46h-.5v-.94h.52z" stroke="#333" stroke-width=".05" fill="#333"/><path d="M380.52 930h76.75a12 12 0 0 1 12 12v544a12 12 0 0 0 12 12h76.75M380.53 930h-3.5" stroke="#333" fill="none"/><path d="M558.52 1498V1498.46h-.5v-.94h.52z" stroke="#333" stroke-width=".05" fill="#333"/><defs><path fill="#333" d="M677 24c-359 0-556-231-505-538l162-976h190L363-516c-36 218 86 364 321 364 246 0 428-159 464-377l159-961h190l-163 989c-51 309-312 525-657 525" id="M"/><path fill="#333" d="M451 24C217 22 71-78 61-277l174-29c11 123 90 172 219 172 161 0 280-83 297-181 11-71-30-117-135-143l-179-44c-195-48-280-153-253-316 31-186 223-314 455-314 233 4 337 107 366 275l-165 30c-18-80-65-152-204-152-138 0-256 75-272 174-13 77 32 118 158 149l162 40c195 48 278 154 252 313C904-113 708 24 451 24" id="N"/><path fill="#333" d="M443 14C219 14 87-123 134-408l117-710h180L317-423c-28 171 49 275 206 275s300-105 332-300l110-670h181L961 0H787l35-209C722-47 590 14 443 14" id="O"/><path fill="#333" d="M481 24C202 24 45-202 104-557s293-575 571-575c216 0 263 132 291 193h15l29-179h181L1006 0H831l28-173h-21C788-107 693 24 481 24zm56-161c204 0 342-174 383-422s-41-412-245-412c-215 0-350 183-388 412-39 235 39 422 250 422zm124-1145l186-276h201l-240 276H661" id="P"/><path fill="#333" d="M66 0l185-1118h174l-28 172h12c78-136 219-209 411-185l-30 181c-211-47-398 67-428 250L246 0H66" id="Q"/><path fill="#333" d="M66 0l185-1118h180L246 0H66zm307-1301c-71 0-117-55-106-119s74-119 145-119c65 0 117 50 106 118s-78 120-145 120" id="R"/><path fill="#333" d="M528 24C258 24 94-156 94-433c0-355 229-699 603-699 270 0 436 178 436 458 0 359-234 698-605 698zm4-161c275 0 420-287 420-533 0-170-77-301-260-301-271 0-418 288-418 536 0 168 77 298 258 298" id="S"/><g id="a"><use transform="matrix(0.008072916666666667,0,0,0.008072916666666667,0,0)" xlink:href="#M"/><use transform="matrix(0.008072916666666667,0,0,0.008072916666666667,12.295052083333335,0)" xlink:href="#N"/><use transform="matrix(0.008072916666666667,0,0,0.008072916666666667,21.013802083333335,0)" xlink:href="#O"/><use transform="matrix(0.008072916666666667,0,0,0.008072916666666667,30.798177083333336,0)" xlink:href="#P"/><use transform="matrix(0.008072916666666667,0,0,0.008072916666666667,40.94583333333334,0)" xlink:href="#Q"/><use transform="matrix(0.008072916666666667,0,0,0.008072916666666667,47.43645833333334,0)" xlink:href="#R"/><use transform="matrix(0.008072916666666667,0,0,0.008072916666666667,51.448697916666674,0)" xlink:href="#S"/></g><path fill="#a9afb8" d="M659 0H135v-1490h529c448 0 721 280 721 744 0 466-273 746-726 746zM440-263h204c287 0 437-148 437-483 0-333-150-481-435-481H440v964" id="T"/><path fill="#a9afb8" d="M128 0v-1118h300V0H128zm150-1264c-91 0-165-68-165-154 0-85 74-154 165-154 90 0 165 69 165 154 0 86-75 154-165 154" id="U"/><path fill="#a9afb8" d="M440 22C227 22 68-92 68-313c0-250 202-322 422-343 195-21 271-24 271-105 0-95-63-149-175-149-116 0-187 57-211 129l-275-46c57-194 237-305 487-305 240 0 474 108 474 379V0H777v-155h-10C713-51 605 22 440 22zm85-211c140 0 238-93 238-211v-121c-37 26-156 42-222 51-111 16-185 59-185 149 0 87 70 132 169 132" id="V"/><path fill="#a9afb8" d="M625 442c-280 0-454-114-503-274l258-72c28 63 97 128 243 128 153 0 246-69 246-216v-206h-23C805-108 717-16 536-16 284-16 81-191 81-561c0-378 208-571 456-571 188 0 280 113 321 202h13v-188h295V-9c0 303-226 451-541 451zm5-686c153 0 240-119 240-319 0-198-86-329-240-329-158 0-241 137-241 329 0 195 85 319 241 319" id="W"/><path fill="#a9afb8" d="M128 0v-1118h290v195h12c54-169 184-238 367-200v268c-27-8-86-15-130-15-138 0-239 95-239 234V0H128" id="X"/><path fill="#a9afb8" d="M128 0v-1118h278l12 217c60-163 185-234 319-234 143 0 236 81 288 251 63-172 205-251 359-251 205 0 357 138 357 381V0h-301v-697c0-126-76-187-177-187-114 0-184 79-184 196V0H789v-705c0-109-72-179-174-179-106 0-187 74-187 208V0H128" id="Y"/><g id="b"><use transform="matrix(0.011907552083333333,0,0,0.011907552083333333,0,0)" xlink:href="#T"/><use transform="matrix(0.011907552083333333,0,0,0.011907552083333333,17.61126953125,0)" xlink:href="#U"/><use transform="matrix(0.011907552083333333,0,0,0.011907552083333333,24.219960937499998,0)" xlink:href="#V"/><use transform="matrix(0.011907552083333333,0,0,0.011907552083333333,38.37804036458333,0)" xlink:href="#W"/><use transform="matrix(0.011907552083333333,0,0,0.011907552083333333,53.78641276041665,0)" xlink:href="#X"/><use transform="matrix(0.011907552083333333,0,0,0.011907552083333333,63.38389973958332,0)" xlink:href="#V"/><use transform="matrix(0.011907552083333333,0,0,0.011907552083333333,77.54197916666666,0)" xlink:href="#Y"/><use transform="matrix(0.011907552083333333,0,0,0.011907552083333333,99.79719401041666,0)" xlink:href="#V"/></g><path fill="#a9afb8" d="M537 19C279 19 81-185 81-557c0-382 206-575 454-575 190 0 278 113 318 202h10v-560h300V0H868v-179h-15C812-89 719 19 537 19zm92-241c153 0 240-134 240-336 0-203-86-334-240-334-158 0-240 138-240 334 0 197 84 336 240 336" id="Z"/><path fill="#a9afb8" d="M633 22C291 22 81-200 81-553c0-345 210-579 537-579 292 0 525 185 525 567v84H378c7 183 109 277 260 277 105 0 184-46 216-132l272 51C1071-99 893 22 633 22zM380-669h474c-15-146-94-237-233-237-143 0-229 99-241 237" id="aa"/><g id="c"><use transform="matrix(0.011907552083333333,0,0,0.011907552083333333,0,0)" xlink:href="#Z"/><use transform="matrix(0.011907552083333333,0,0,0.011907552083333333,15.372649739583334,0)" xlink:href="#aa"/></g><path fill="#a9afb8" d="M628 22C291 22 81-210 81-554c0-346 210-578 547-578 265 0 455 142 497 372l-279 52c-25-116-99-188-215-188-160 0-244 139-244 341 0 200 84 341 244 341 116 0 193-74 217-195l279 51C1085-123 896 22 628 22" id="ab"/><path fill="#a9afb8" d="M572 22C302 22 117-98 78-306l279-48c29 105 101 156 224 156 114 0 185-48 185-115 0-118-228-130-337-155-215-49-322-150-322-317 0-215 187-347 470-347 265 0 424 116 466 298l-266 47c-24-76-87-130-196-130-98 0-174 46-174 113 0 56 38 95 144 117l201 40c216 44 320 143 320 302 0 220-207 367-500 367" id="ac"/><path fill="#a9afb8" d="M628 22C291 22 81-210 81-554c0-346 210-578 547-578 336 0 547 232 547 578 0 344-211 576-547 576zm0-236c160 0 242-146 242-341 0-197-82-341-242-341S387-753 387-555c0 195 81 341 241 341" id="ad"/><g id="d"><use transform="matrix(0.011907552083333333,0,0,0.011907552083333333,0,0)" xlink:href="#ab"/><use transform="matrix(0.011907552083333333,0,0,0.011907552083333333,14.586751302083334,0)" xlink:href="#V"/><use transform="matrix(0.011907552083333333,0,0,0.011907552083333333,28.744830729166665,0)" xlink:href="#ac"/><use transform="matrix(0.011907552083333333,0,0,0.011907552083333333,42.40279296875,0)" xlink:href="#ad"/></g><g id="e"><use transform="matrix(0.011907552083333333,0,0,0.011907552083333333,0,0)" xlink:href="#Z"/><use transform="matrix(0.011907552083333333,0,0,0.011907552083333333,15.372649739583334,0)" xlink:href="#aa"/></g><path fill="#a9afb8" d="M513 14c-232 0-385-159-385-421v-711h300v659c0 139 76 222 202 222 127 0 217-86 217-234v-647h301V0H864l-4-232C797-74 683 14 513 14" id="ae"/><g id="f"><use transform="matrix(0.011907552083333333,0,0,0.011907552083333333,0,0)" xlink:href="#ae"/><use transform="matrix(0.011907552083333333,0,0,0.011907552083333333,15.18212890625,0)" xlink:href="#ac"/><use transform="matrix(0.011907552083333333,0,0,0.011907552083333333,28.840091145833334,0)" xlink:href="#ad"/></g><path fill="#a9afb8" d="M522-1970V480H238v-2450h284" id="af"/><use transform="matrix(0.011907552083333333,0,0,0.011907552083333333,0,0)" xlink:href="#af" id="g"/><path fill="#a9afb8" d="M795 20C377 20 94-272 94-743c0-483 302-767 694-767 335 0 593 206 635 500h-310c-42-142-154-229-320-229-230 0-389 177-389 493s154 495 393 495c212 0 340-120 345-311H818v-232h620v186c0 391-269 628-643 628" id="ag"/><path fill="#a9afb8" d="M428-647V0H128v-1118h283l4 231c63-156 176-245 348-245 232 0 384 159 384 421V0H847v-659c0-139-76-222-202-222-128 0-217 86-217 234" id="ah"/><g id="h"><use transform="matrix(0.011907552083333333,0,0,0.011907552083333333,0,0)" xlink:href="#ag"/><use transform="matrix(0.011907552083333333,0,0,0.011907552083333333,18.301907552083332,0)" xlink:href="#aa"/><use transform="matrix(0.011907552083333333,0,0,0.011907552083333333,32.82912109375,0)" xlink:href="#X"/><use transform="matrix(0.011907552083333333,0,0,0.011907552083333333,42.16464192708333,0)" xlink:href="#aa"/><use transform="matrix(0.011907552083333333,0,0,0.011907552083333333,56.69185546875,0)" xlink:href="#ah"/><use transform="matrix(0.011907552083333333,0,0,0.011907552083333333,71.87398437499999,0)" xlink:href="#ab"/><use transform="matrix(0.011907552083333333,0,0,0.011907552083333333,86.22258463541667,0)" xlink:href="#U"/><use transform="matrix(0.011907552083333333,0,0,0.011907552083333333,92.83127604166667,0)" xlink:href="#V"/><use transform="matrix(0.011907552083333333,0,0,0.011907552083333333,106.98935546875,0)" xlink:href="#Z"/><use transform="matrix(0.011907552083333333,0,0,0.011907552083333333,122.36200520833333,0)" xlink:href="#ad"/><use transform="matrix(0.011907552083333333,0,0,0.011907552083333333,137.31789062500002,0)" xlink:href="#X"/></g><g id="i"><use transform="matrix(0.011907552083333333,0,0,0.011907552083333333,0,0)" xlink:href="#Z"/><use transform="matrix(0.011907552083333333,0,0,0.011907552083333333,15.372649739583334,0)" xlink:href="#aa"/></g><path fill="#a9afb8" d="M128 418v-1536h295v188h14c41-89 129-202 319-202 248 0 453 193 453 575 0 372-197 576-455 576-183 0-275-108-317-198h-9v597H128zm534-640c156 0 240-139 240-336 0-196-83-334-240-334-154 0-241 131-241 334 0 202 88 336 241 336" id="ai"/><g id="j"><use transform="matrix(0.011907552083333333,0,0,0.011907552083333333,0,0)" xlink:href="#T"/><use transform="matrix(0.011907552083333333,0,0,0.011907552083333333,17.61126953125,0)" xlink:href="#aa"/><use transform="matrix(0.011907552083333333,0,0,0.011907552083333333,32.138483072916664,0)" xlink:href="#ac"/><use transform="matrix(0.011907552083333333,0,0,0.011907552083333333,45.7964453125,0)" xlink:href="#ai"/><use transform="matrix(0.011907552083333333,0,0,0.011907552083333333,61.169095052083335,0)" xlink:href="#aa"/><use transform="matrix(0.011907552083333333,0,0,0.011907552083333333,75.69630859375,0)" xlink:href="#ac"/><use transform="matrix(0.011907552083333333,0,0,0.011907552083333333,89.35427083333335,0)" xlink:href="#V"/><use transform="matrix(0.011907552083333333,0,0,0.011907552083333333,103.51235026041668,0)" xlink:href="#ac"/></g><path fill="#a9afb8" d="M180 0v-1490h190v1322h690V0H180" id="aj"/><path fill="#a9afb8" d="M471 26C259 26 90-98 90-318c0-256 228-303 435-329 202-27 287-16 287-108 0-139-79-219-234-219-161 0-248 86-283 164l-173-57c86-203 278-265 451-265 150 0 419 46 419 395V0H815v-152h-12C765-73 660 26 471 26zm31-159c199 0 310-134 310-271v-155c-30 35-226 55-295 64-131 17-246 59-246 186 0 116 97 176 231 176" id="ak"/><path fill="#a9afb8" d="M537 14c-226 0-379-139-379-422v-710h180v695c0 172 97 275 253 275 160 0 281-109 281-300v-670h181V0H879v-209C806-46 684 14 537 14" id="al"/><path fill="#a9afb8" d="M158 0v-1118h174v172h12c41-113 157-188 290-188 26 0 70 2 91 3v181c-11-2-60-10-108-10-161 0-279 109-279 260V0H158" id="am"/><path fill="#a9afb8" d="M613 24c-304 0-509-231-509-576 0-350 205-580 509-580 305 0 511 230 511 580 0 345-206 576-511 576zm0-161c226 0 329-195 329-415 0-222-103-419-329-419-223 0-326 196-326 419 0 220 103 415 326 415" id="an"/><g id="k"><use transform="matrix(0.006946072048611111,0,0,0.006946072048611111,0,0)" xlink:href="#aj"/><use transform="matrix(0.006946072048611111,0,0,0.006946072048611111,8.043551432291666,0)" xlink:href="#ak"/><use transform="matrix(0.006946072048611111,0,0,0.006946072048611111,16.031534288194443,0)" xlink:href="#al"/><use transform="matrix(0.006946072048611111,0,0,0.006946072048611111,24.443227539062498,0)" xlink:href="#am"/><use transform="matrix(0.006946072048611111,0,0,0.006946072048611111,29.562482638888888,0)" xlink:href="#an"/></g><path fill="#a9afb8" d="M789 20c-398 0-667-293-667-764 0-473 273-766 655-766 315 0 558 198 612 487h-196c-61-191-204-311-415-311-262 0-471 207-471 590 0 380 208 588 482 588 249 0 420-165 425-427H828v-166h572v163c0 370-256 606-611 606" id="ao"/><path fill="#a9afb8" d="M158 0v-1118h175l1 205c55-151 181-225 313-225 147 0 245 90 285 228 53-141 190-228 352-228 194 0 352 125 352 384V0h-181v-749c0-161-105-225-225-225-151 0-243 103-243 244V0H807v-767c0-124-93-207-219-207-131 0-250 92-250 270V0H158" id="ap"/><path fill="#a9afb8" d="M628 24c-324 0-524-230-524-574 0-343 198-582 503-582 237 0 487 146 487 559v75H286c9 234 145 362 343 362 132 0 231-58 273-172l174 48C1024-91 857 24 628 24zM287-650h624c-17-190-120-322-304-322-192 0-309 151-320 322" id="aq"/><path fill="#a9afb8" d="M538 24C308 24 148-78 108-271l171-41c32 123 123 178 257 178 156 0 256-77 256-169 0-77-54-128-164-154l-186-44c-203-48-300-148-300-305 0-192 176-326 414-326 230 0 351 112 402 269l-163 42c-31-80-94-158-238-158-133 0-233 69-233 162 0 83 57 129 188 160l169 40c203 48 298 149 298 302 0 196-179 339-441 339" id="ar"/><g id="l"><use transform="matrix(0.006946072048611111,0,0,0.006946072048611111,0,0)" xlink:href="#ao"/><use transform="matrix(0.006946072048611111,0,0,0.006946072048611111,10.613598090277778,0)" xlink:href="#an"/><use transform="matrix(0.006946072048611111,0,0,0.006946072048611111,19.143374565972223,0)" xlink:href="#ap"/><use transform="matrix(0.006946072048611111,0,0,0.006946072048611111,31.604627821180554,0)" xlink:href="#aq"/><use transform="matrix(0.006946072048611111,0,0,0.006946072048611111,39.89823784722222,0)" xlink:href="#ar"/></g><path fill="#a9afb8" d="M180 0v-1490h270l367 940c28 72 75 218 110 339 35-117 81-264 110-339l362-940h271V0h-187c2-448-5-837 7-1287-157 497-311 829-483 1287H842C666-458 514-784 354-1284c12 438 5 843 7 1284H180" id="as"/><path fill="#a9afb8" d="M598-1118v154H368v674c0 100 37 144 132 144 23 0 62-6 92-12L629-6c-37 13-88 20-134 20-193 0-307-107-307-290v-688H20v-154h168v-266h180v266h230" id="at"/><path fill="#a9afb8" d="M158 0v-1118h180V0H158zm91-1301c-68 0-125-53-125-119s57-119 125-119c69 0 126 53 126 119s-57 119-126 119" id="au"/><path fill="#a9afb8" d="M338-670V0H158v-1118h173l1 207c72-158 192-221 342-221 226 0 378 139 378 422V0H872v-695c0-172-96-275-252-275-161 0-282 109-282 300" id="av"/><g id="m"><use transform="matrix(0.006946072048611111,0,0,0.006946072048611111,0,0)" xlink:href="#as"/><use transform="matrix(0.006946072048611111,0,0,0.006946072048611111,12.850233289930555,0)" xlink:href="#ak"/><use transform="matrix(0.006946072048611111,0,0,0.006946072048611111,20.838216145833332,0)" xlink:href="#am"/><use transform="matrix(0.006946072048611111,0,0,0.006946072048611111,26.415912000868055,0)" xlink:href="#at"/><use transform="matrix(0.006946072048611111,0,0,0.006946072048611111,31.069780273437498,0)" xlink:href="#au"/><use transform="matrix(0.006946072048611111,0,0,0.006946072048611111,34.51503200954861,0)" xlink:href="#av"/><use transform="matrix(0.006946072048611111,0,0,0.006946072048611111,42.919779188368054,0)" xlink:href="#ar"/></g><path fill="#a9afb8" d="M784 20c-382 0-662-292-662-764 0-473 280-766 662-766s660 293 660 766c0 472-278 764-660 764zm0-176c266 0 475-207 475-588 0-383-209-590-475-590-268 0-477 208-477 590 0 380 209 588 477 588" id="aw"/><path fill="#a9afb8" d="M481 0L54-1118h197c107 314 236 620 325 951 87-331 217-637 324-951h197L670 0H481" id="ax"/><path fill="#a9afb8" d="M140 405l46-156c120 36 205 19 263-150l32-93L54-1118h197c107 313 237 620 324 950 87-331 219-637 326-950h196L606 167c-68 178-176 259-334 259-64 0-113-12-132-21" id="ay"/><g id="n"><use transform="matrix(0.006946072048611111,0,0,0.006946072048611111,0,0)" xlink:href="#aw"/><use transform="matrix(0.006946072048611111,0,0,0.006946072048611111,10.877548828125,0)" xlink:href="#al"/><use transform="matrix(0.006946072048611111,0,0,0.006946072048611111,19.289242078993055,0)" xlink:href="#ax"/><use transform="matrix(0.006946072048611111,0,0,0.006946072048611111,27.006328125,0)" xlink:href="#aq"/><use transform="matrix(0.006946072048611111,0,0,0.006946072048611111,35.299938151041665,0)" xlink:href="#am"/><use transform="matrix(0.006946072048611111,0,0,0.006946072048611111,40.87763400607639,0)" xlink:href="#av"/><use transform="matrix(0.006946072048611111,0,0,0.006946072048611111,49.28238118489584,0)" xlink:href="#aq"/><use transform="matrix(0.006946072048611111,0,0,0.006946072048611111,57.298148328993065,0)" xlink:href="#ay"/></g><path fill="#a9afb8" d="M419-1970V480H262v-2450h157" id="az"/><use transform="matrix(0.006946072048611111,0,0,0.006946072048611111,0,0)" xlink:href="#az" id="o"/><path fill="#a9afb8" d="M657 26c-323 0-524-166-541-416h195c15 169 171 246 346 246 202 0 356-106 356-265 5-203-294-238-475-293-239-73-380-191-380-389 0-252 224-419 512-419 294 0 499 171 508 396H992c-17-145-151-228-328-228-193 0-321 102-321 242 0 156 175 211 284 241l149 41c160 44 422 134 422 412 0 244-197 432-541 432" id="aA"/><path fill="#a9afb8" d="M158 418v-1536h174v179h20c37-59 106-193 324-193 279 0 474 222 474 576 0 356-194 580-473 580-213 0-288-135-325-197h-14v591H158zm492-555c209 0 317-186 317-421 0-232-105-413-317-413-206 0-314 166-314 413 0 249 111 421 314 421" id="aB"/><path fill="#a9afb8" d="M677 24c-213 0-288-135-325-197h-20V0H158v-1490h180v551h14c37-59 106-193 324-193 279 0 474 222 474 576 0 356-194 580-473 580zm-27-161c209 0 317-186 317-421 0-232-105-413-317-413-206 0-314 166-314 413 0 249 111 421 314 421" id="aC"/><g id="p"><use transform="matrix(0.006946072048611111,0,0,0.006946072048611111,0,0)" xlink:href="#aA"/><use transform="matrix(0.006946072048611111,0,0,0.006946072048611111,9.127138671875,0)" xlink:href="#aq"/><use transform="matrix(0.006946072048611111,0,0,0.006946072048611111,17.420748697916665,0)" xlink:href="#aB"/><use transform="matrix(0.006946072048611111,0,0,0.006946072048611111,26.131123046874997,0)" xlink:href="#at"/><use transform="matrix(0.006946072048611111,0,0,0.006946072048611111,30.646069878472215,0)" xlink:href="#aq"/><use transform="matrix(0.006946072048611111,0,0,0.006946072048611111,38.93967990451388,0)" xlink:href="#ap"/><use transform="matrix(0.006946072048611111,0,0,0.006946072048611111,51.400933159722214,0)" xlink:href="#aC"/><use transform="matrix(0.006946072048611111,0,0,0.006946072048611111,60.11130750868054,0)" xlink:href="#aq"/><use transform="matrix(0.006946072048611111,0,0,0.006946072048611111,68.40491753472222,0)" xlink:href="#am"/></g><path fill="#a9afb8" d="M626 20c-262 0-458-168-468-396h184c12 133 134 229 284 229 180 0 311-137 311-326 0-192-136-335-323-335-92 0-196 33-255 78l-178-22 88-738h784v167H429l-51 435h8c61-51 160-87 263-87 273 0 474 211 474 499 0 286-210 496-497 496" id="aD"/><path fill="#a9afb8" d="M128 359l88-567h206L266 359H128" id="aE"/><g id="q"><use transform="matrix(0.006946072048611111,0,0,0.006946072048611111,0,0)" xlink:href="#aD"/><use transform="matrix(0.006946072048611111,0,0,0.006946072048611111,8.647859700520833,0)" xlink:href="#aE"/></g><path fill="#a9afb8" d="M154 0v-137l495-537c165-179 249-281 249-418 0-156-121-253-280-253-170 0-278 110-278 278H158c0-264 200-443 465-443 266 0 455 183 455 416 0 161-73 288-336 568L416-179v12h687V0H154" id="aF"/><path fill="#a9afb8" d="M646 20c-332 0-524-278-524-764 0-483 194-766 524-766s524 283 524 766c0 485-191 764-524 764zm0-166c218 0 341-220 341-598 0-380-123-601-341-601s-341 222-341 601c0 378 123 598 341 598" id="aG"/><g id="r"><use transform="matrix(0.006946072048611111,0,0,0.006946072048611111,0,0)" xlink:href="#aF"/><use transform="matrix(0.006946072048611111,0,0,0.006946072048611111,8.675643988715278,0)" xlink:href="#aG"/><use transform="matrix(0.006946072048611111,0,0,0.006946072048611111,17.649969075520833,0)" xlink:href="#aF"/><use transform="matrix(0.006946072048611111,0,0,0.006946072048611111,26.32561306423611,0)" xlink:href="#aD"/></g><path d="M180 0v-1490h190v1322h690V0H180" id="aH"/><path d="M471 26C259 26 90-98 90-318c0-256 228-303 435-329 202-27 287-16 287-108 0-139-79-219-234-219-161 0-248 86-283 164l-173-57c86-203 278-265 451-265 150 0 419 46 419 395V0H815v-152h-12C765-73 660 26 471 26zm31-159c199 0 310-134 310-271v-155c-30 35-226 55-295 64-131 17-246 59-246 186 0 116 97 176 231 176" id="aI"/><path d="M338-670V0H158v-1118h173l1 207c72-158 192-221 342-221 226 0 378 139 378 422V0H872v-695c0-172-96-275-252-275-161 0-282 109-282 300" id="aJ"/><path d="M502 418V313h118c73 0 98-17 98-66s-25-65-98-65h-82l21-161C285-4 104-228 104-552c0-350 205-580 509-580 216 0 392 114 453 309l-173 49c-33-115-133-197-280-197-223 0-326 196-326 419 0 220 103 415 326 415 150 0 252-85 285-206l172 49C1015-110 859 5 663 22v64c130 5 189 54 189 162 0 118-71 170-231 170H502" id="aK"/><path d="M158 0v-1118h174v172h12c41-113 157-188 290-188 26 0 70 2 91 3v181c-11-2-60-10-108-10-161 0-279 109-279 260V0H158" id="aL"/><g id="s"><use transform="matrix(0.008173828125000001,0,0,0.008173828125000001,0,0)" xlink:href="#aH"/><use transform="matrix(0.008173828125000001,0,0,0.008173828125000001,9.465292968750001,0)" xlink:href="#aI"/><use transform="matrix(0.008173828125000001,0,0,0.008173828125000001,18.865195312500003,0)" xlink:href="#aJ"/><use transform="matrix(0.008173828125000001,0,0,0.008173828125000001,28.755527343750003,0)" xlink:href="#aK"/><use transform="matrix(0.008173828125000001,0,0,0.008173828125000001,38.482382812500006,0)" xlink:href="#aI"/><use transform="matrix(0.008173828125000001,0,0,0.008173828125000001,47.882285156250006,0)" xlink:href="#aL"/></g><path d="M645 0H180v-1490h484c435 0 692 280 692 742 0 466-257 748-711 748zM370-168h263c363 0 539-218 539-580 0-358-176-574-521-574H370v1154" id="aM"/><path d="M628 24c-324 0-524-230-524-574 0-343 198-582 503-582 237 0 487 146 487 559v75H286c9 234 145 362 343 362 132 0 231-58 273-172l174 48C1024-91 857 24 628 24zM287-650h624c-17-190-120-322-304-322-192 0-309 151-320 322" id="aN"/><path d="M538 24C308 24 148-78 108-271l171-41c32 123 123 178 257 178 156 0 256-77 256-169 0-77-54-128-164-154l-186-44c-203-48-300-148-300-305 0-192 176-326 414-326 230 0 351 112 402 269l-163 42c-31-80-94-158-238-158-133 0-233 69-233 162 0 83 57 129 188 160l169 40c203 48 298 149 298 302 0 196-179 339-441 339" id="aO"/><path d="M158 418v-1536h174v179h20c37-59 106-193 324-193 279 0 474 222 474 576 0 356-194 580-473 580-213 0-288-135-325-197h-14v591H158zm492-555c209 0 317-186 317-421 0-232-105-413-317-413-206 0-314 166-314 413 0 249 111 421 314 421" id="aP"/><g id="t"><use transform="matrix(0.008173828125000001,0,0,0.008173828125000001,0,0)" xlink:href="#aM"/><use transform="matrix(0.008173828125000001,0,0,0.008173828125000001,12.08091796875,0)" xlink:href="#aN"/><use transform="matrix(0.008173828125000001,0,0,0.008173828125000001,21.84046875,0)" xlink:href="#aO"/><use transform="matrix(0.008173828125000001,0,0,0.008173828125000001,30.676376953125,0)" xlink:href="#aP"/><use transform="matrix(0.008173828125000001,0,0,0.008173828125000001,40.926357421875004,0)" xlink:href="#aN"/><use transform="matrix(0.008173828125000001,0,0,0.008173828125000001,50.685908203125,0)" xlink:href="#aO"/><use transform="matrix(0.008173828125000001,0,0,0.008173828125000001,59.521816406250004,0)" xlink:href="#aI"/></g><path d="M180 0v-1490h908v168H370v486h669v168H370v500h727V0H180" id="aQ"/><path d="M598-1118v154H368v674c0 100 37 144 132 144 23 0 62-6 92-12L629-6c-37 13-88 20-134 20-193 0-307-107-307-290v-688H20v-154h168v-266h180v266h230" id="aR"/><path d="M577 24c-279 0-473-224-473-580 0-354 195-576 474-576 218 0 287 134 324 193h14v-551h180V0H922v-173h-20C865-111 790 24 577 24zm27-161c203 0 314-172 314-421 0-247-108-413-314-413-212 0-317 181-317 413 0 235 108 421 317 421" id="aS"/><g id="u"><use transform="matrix(0.008173828125000001,0,0,0.008173828125000001,0,0)" xlink:href="#aQ"/><use transform="matrix(0.008173828125000001,0,0,0.008173828125000001,10.061982421875001,0)" xlink:href="#aJ"/><use transform="matrix(0.008173828125000001,0,0,0.008173828125000001,19.952314453125002,0)" xlink:href="#aR"/><use transform="matrix(0.008173828125000001,0,0,0.008173828125000001,25.428779296875003,0)" xlink:href="#aL"/><use transform="matrix(0.008173828125000001,0,0,0.008173828125000001,31.730800781250004,0)" xlink:href="#aI"/><use transform="matrix(0.008173828125000001,0,0,0.008173828125000001,41.130703125000004,0)" xlink:href="#aS"/><use transform="matrix(0.008173828125000001,0,0,0.008173828125000001,51.38068359375001,0)" xlink:href="#aI"/></g><path d="M65 0l393-574-370-544h210c88 136 192 297 267 435 67-142 176-302 264-435h206L661-564 1053 0H844c-94-144-206-310-287-458C484-308 366-142 273 0H65" id="aT"/><path d="M158 0v-1118h180V0H158zm91-1301c-68 0-125-53-125-119s57-119 125-119c69 0 126 53 126 119s-57 119-126 119" id="aU"/><path d="M677 24c-213 0-288-135-325-197h-20V0H158v-1490h180v551h14c37-59 106-193 324-193 279 0 474 222 474 576 0 356-194 580-473 580zm-27-161c209 0 317-186 317-421 0-232-105-413-317-413-206 0-314 166-314 413 0 249 111 421 314 421" id="aV"/><g id="v"><use transform="matrix(0.008173828125000001,0,0,0.008173828125000001,0,0)" xlink:href="#aQ"/><use transform="matrix(0.008173828125000001,0,0,0.008173828125000001,10.061982421875001,0)" xlink:href="#aT"/><use transform="matrix(0.008173828125000001,0,0,0.008173828125000001,19.200322265625005,0)" xlink:href="#aU"/><use transform="matrix(0.008173828125000001,0,0,0.008173828125000001,23.254541015625005,0)" xlink:href="#aV"/><use transform="matrix(0.008173828125000001,0,0,0.008173828125000001,33.504521484375005,0)" xlink:href="#aU"/><use transform="matrix(0.008173828125000001,0,0,0.008173828125000001,37.55874023437501,0)" xlink:href="#aL"/></g><path d="M180 0v-1490h510c348 0 508 194 508 460 0 198-88 351-276 417L1256 0h-220L726-579c-117 2-238 0-356 1V0H180zm190-747h312c235 0 327-108 327-283 0-177-92-293-329-293H370v576" id="aW"/><path d="M537 14c-226 0-379-139-379-422v-710h180v695c0 172 97 275 253 275 160 0 281-109 281-300v-670h181V0H879v-209C806-46 684 14 537 14" id="aX"/><path d="M158 0v-1118h175l1 205c55-151 181-225 313-225 147 0 245 90 285 228 53-141 190-228 352-228 194 0 352 125 352 384V0h-181v-749c0-161-105-225-225-225-151 0-243 103-243 244V0H807v-767c0-124-93-207-219-207-131 0-250 92-250 270V0H158" id="aY"/><path d="M613 24c-304 0-509-231-509-576 0-350 205-580 509-580 305 0 511 230 511 580 0 345-206 576-511 576zm0-161c226 0 329-195 329-415 0-222-103-419-329-419-223 0-326 196-326 419 0 220 103 415 326 415" id="aZ"/><g id="w"><use transform="matrix(0.008173828125000001,0,0,0.008173828125000001,0,0)" xlink:href="#aW"/><use transform="matrix(0.008173828125000001,0,0,0.008173828125000001,10.527890625000001,0)" xlink:href="#aN"/><use transform="matrix(0.008173828125000001,0,0,0.008173828125000001,20.287441406250004,0)" xlink:href="#aO"/><use transform="matrix(0.008173828125000001,0,0,0.008173828125000001,29.123349609375005,0)" xlink:href="#aX"/><use transform="matrix(0.008173828125000001,0,0,0.008173828125000001,39.021855468750005,0)" xlink:href="#aY"/><use transform="matrix(0.008173828125000001,0,0,0.008173828125000001,53.685703125,0)" xlink:href="#aZ"/></g><path d="M180 0v-1490h270l367 940c28 72 75 218 110 339 35-117 81-264 110-339l362-940h271V0h-187c2-448-5-837 7-1287-157 497-311 829-483 1287H842C666-458 514-784 354-1284c12 438 5 843 7 1284H180" id="ba"/><path d="M338-1490V0H158v-1490h180" id="bb"/><g id="x"><use transform="matrix(0.008173828125000001,0,0,0.008173828125000001,0,0)" xlink:href="#ba"/><use transform="matrix(0.008173828125000001,0,0,0.008173828125000001,15.121582031250002,0)" xlink:href="#aN"/><use transform="matrix(0.008173828125000001,0,0,0.008173828125000001,24.881132812500002,0)" xlink:href="#aJ"/><use transform="matrix(0.008173828125000001,0,0,0.008173828125000001,34.77146484375,0)" xlink:href="#aO"/><use transform="matrix(0.008173828125000001,0,0,0.008173828125000001,43.607373046875004,0)" xlink:href="#aI"/><use transform="matrix(0.008173828125000001,0,0,0.008173828125000001,53.007275390625004,0)" xlink:href="#bb"/></g><g id="y"><use transform="matrix(0.008173828125000001,0,0,0.008173828125000001,0,0)" xlink:href="#aQ"/><use transform="matrix(0.008173828125000001,0,0,0.008173828125000001,10.061982421875001,0)" xlink:href="#aT"/><use transform="matrix(0.008173828125000001,0,0,0.008173828125000001,19.200322265625005,0)" xlink:href="#aU"/><use transform="matrix(0.008173828125000001,0,0,0.008173828125000001,23.254541015625005,0)" xlink:href="#aV"/><use transform="matrix(0.008173828125000001,0,0,0.008173828125000001,33.504521484375005,0)" xlink:href="#aU"/><use transform="matrix(0.008173828125000001,0,0,0.008173828125000001,37.55874023437501,0)" xlink:href="#aL"/></g><path d="M789 20c-398 0-667-293-667-764 0-473 273-766 655-766 315 0 558 198 612 487h-196c-61-191-204-311-415-311-262 0-471 207-471 590 0 380 208 588 482 588 249 0 420-165 425-427H828v-166h572v163c0 370-256 606-611 606" id="bc"/><g id="z"><use transform="matrix(0.008173828125000001,0,0,0.008173828125000001,0,0)" xlink:href="#bc"/><use transform="matrix(0.008173828125000001,0,0,0.008173828125000001,12.489609375000002,0)" xlink:href="#aI"/><use transform="matrix(0.008173828125000001,0,0,0.008173828125000001,21.889511718750004,0)" xlink:href="#aO"/><use transform="matrix(0.008173828125000001,0,0,0.008173828125000001,30.725419921875005,0)" xlink:href="#aR"/><use transform="matrix(0.008173828125000001,0,0,0.008173828125000001,36.038408203125,0)" xlink:href="#aZ"/></g><g id="A"><use transform="matrix(0.008173828125000001,0,0,0.008173828125000001,0,0)" xlink:href="#aP"/><use transform="matrix(0.008173828125000001,0,0,0.008173828125000001,10.249980468750001,0)" xlink:href="#aZ"/><use transform="matrix(0.008173828125000001,0,0,0.008173828125000001,20.287441406250004,0)" xlink:href="#aL"/></g><path d="M783 20c-382 0-661-292-661-764 0-473 279-766 661-766 302 0 548 182 601 489h-190c-42-204-217-313-411-313-268 0-476 208-476 590 0 381 209 588 476 588 195 0 369-110 411-313h190c-52 303-296 489-601 489" id="bd"/><path d="M611 442c-248 0-391-105-460-228l146-94c47 65 117 165 314 165 178 0 307-82 307-266v-224h-17C863-141 792-18 576-18c-268 0-472-195-472-546 0-346 197-568 476-568 216 0 288 133 326 193h17v-179h175V29c0 289-215 413-487 413zm-5-620c203 0 314-146 314-390 0-237-108-403-314-403-213 0-319 180-319 403 0 230 109 390 319 390" id="be"/><g id="B"><use transform="matrix(0.008173828125000001,0,0,0.008173828125000001,0,0)" xlink:href="#bd"/><use transform="matrix(0.008173828125000001,0,0,0.008173828125000001,12.228046875000002,0)" xlink:href="#aI"/><use transform="matrix(0.008173828125000001,0,0,0.008173828125000001,21.627949218750004,0)" xlink:href="#aR"/><use transform="matrix(0.008173828125000001,0,0,0.008173828125000001,26.940937500000004,0)" xlink:href="#aN"/><use transform="matrix(0.008173828125000001,0,0,0.008173828125000001,36.70048828125,0)" xlink:href="#be"/><use transform="matrix(0.008173828125000001,0,0,0.008173828125000001,46.966816406250004,0)" xlink:href="#aZ"/><use transform="matrix(0.008173828125000001,0,0,0.008173828125000001,57.004277343750005,0)" xlink:href="#aL"/><use transform="matrix(0.008173828125000001,0,0,0.008173828125000001,63.567861328125005,0)" xlink:href="#aU"/><use transform="matrix(0.008173828125000001,0,0,0.008173828125000001,67.62208007812501,0)" xlink:href="#aI"/></g><path d="M600 0L52-1490h200c166 485 304 806 458 1336 156-533 285-846 449-1336h202L819 0H600" id="bf"/><g id="C"><use transform="matrix(0.008173828125000001,0,0,0.008173828125000001,0,0)" xlink:href="#bf"/><use transform="matrix(0.008173828125000001,0,0,0.008173828125000001,10.699541015625002,0)" xlink:href="#aI"/><use transform="matrix(0.008173828125000001,0,0,0.008173828125000001,20.099443359375,0)" xlink:href="#bb"/><use transform="matrix(0.008173828125000001,0,0,0.008173828125000001,24.153662109375002,0)" xlink:href="#aU"/><use transform="matrix(0.008173828125000001,0,0,0.008173828125000001,28.207880859375003,0)" xlink:href="#aS"/><use transform="matrix(0.008173828125000001,0,0,0.008173828125000001,38.457861328125006,0)" xlink:href="#aI"/><use transform="matrix(0.008173828125000001,0,0,0.008173828125000001,47.857763671875006,0)" xlink:href="#aL"/></g><g id="D"><use transform="matrix(0.008173828125000001,0,0,0.008173828125000001,0,0)" xlink:href="#aM"/><use transform="matrix(0.008173828125000001,0,0,0.008173828125000001,12.08091796875,0)" xlink:href="#aI"/><use transform="matrix(0.008173828125000001,0,0,0.008173828125000001,21.4808203125,0)" xlink:href="#aS"/><use transform="matrix(0.008173828125000001,0,0,0.008173828125000001,31.730800781250004,0)" xlink:href="#aZ"/><use transform="matrix(0.008173828125000001,0,0,0.008173828125000001,41.768261718750004,0)" xlink:href="#aO"/></g><path d="M98-1322v-168h1126v168H757V0H567v-1322H98" id="bg"/><path d="M471 26C259 26 90-98 90-318c0-256 228-303 435-329 202-27 287-16 287-108 0-139-79-219-234-219-161 0-248 86-283 164l-173-57c86-203 278-265 451-265 150 0 419 46 419 395V0H815v-152h-12C765-73 660 26 471 26zm31-159c199 0 310-134 310-271v-155c-30 35-226 55-295 64-131 17-246 59-246 186 0 116 97 176 231 176zm187-1180c-99 0-192-83-243-83-35 0-51 40-53 79H267c4-120 55-208 162-208 104 0 174 85 241 85 33 0 49-23 56-81h123c-4 126-62 208-160 208" id="bh"/><g id="E"><use transform="matrix(0.008173828125000001,0,0,0.008173828125000001,0,0)" xlink:href="#bg"/><use transform="matrix(0.008173828125000001,0,0,0.008173828125000001,9.857636718750001,0)" xlink:href="#aL"/><use transform="matrix(0.008173828125000001,0,0,0.008173828125000001,16.159658203125,0)" xlink:href="#aI"/><use transform="matrix(0.008173828125000001,0,0,0.008173828125000001,25.559560546875005,0)" xlink:href="#aJ"/><use transform="matrix(0.008173828125000001,0,0,0.008173828125000001,35.449892578125,0)" xlink:href="#aO"/><use transform="matrix(0.008173828125000001,0,0,0.008173828125000001,44.28580078125,0)" xlink:href="#aI"/><use transform="matrix(0.008173828125000001,0,0,0.008173828125000001,53.685703125,0)" xlink:href="#aK"/><use transform="matrix(0.008173828125000001,0,0,0.008173828125000001,63.412558593750006,0)" xlink:href="#bh"/><use transform="matrix(0.008173828125000001,0,0,0.008173828125000001,72.8124609375,0)" xlink:href="#aZ"/></g><path d="M657 26c-323 0-524-166-541-416h195c15 169 171 246 346 246 202 0 356-106 356-265 5-203-294-238-475-293-239-73-380-191-380-389 0-252 224-419 512-419 294 0 499 171 508 396H992c-17-145-151-228-328-228-193 0-321 102-321 242 0 156 175 211 284 241l149 41c160 44 422 134 422 412 0 244-197 432-541 432" id="bi"/><g id="F"><use transform="matrix(0.008173828125000001,0,0,0.008173828125000001,0,0)" xlink:href="#bi"/><use transform="matrix(0.008173828125000001,0,0,0.008173828125000001,10.740410156250002,0)" xlink:href="#aI"/><use transform="matrix(0.008173828125000001,0,0,0.008173828125000001,20.140312500000004,0)" xlink:href="#bb"/><use transform="matrix(0.008173828125000001,0,0,0.008173828125000001,24.194531250000004,0)" xlink:href="#aS"/><use transform="matrix(0.008173828125000001,0,0,0.008173828125000001,34.44451171875001,0)" xlink:href="#aZ"/></g><g id="G"><use transform="matrix(0.008173828125000001,0,0,0.008173828125000001,0,0)" xlink:href="#bc"/><use transform="matrix(0.008173828125000001,0,0,0.008173828125000001,12.489609375000002,0)" xlink:href="#aN"/><use transform="matrix(0.008173828125000001,0,0,0.008173828125000001,22.249160156250003,0)" xlink:href="#aL"/><use transform="matrix(0.008173828125000001,0,0,0.008173828125000001,28.551181640625003,0)" xlink:href="#aI"/><use transform="matrix(0.008173828125000001,0,0,0.008173828125000001,37.951083984375,0)" xlink:href="#bb"/></g><path d="M174-520v-126l944-476v196L406-588v12l712 338v194" id="bj"/><path d="M613 24c-304 0-509-231-509-576 0-350 205-580 509-580 216 0 392 114 453 309l-173 49c-33-115-133-197-280-197-223 0-326 196-326 419 0 220 103 415 326 415 150 0 252-85 285-206l172 49C1010-95 832 24 613 24" id="bk"/><path d="M1181-520L237-44v-194l712-338v-12L237-926v-196l944 476v126" id="bl"/><g id="H"><use transform="matrix(0.0087890625,0,0,0.0087890625,0,0)" xlink:href="#bj"/><use transform="matrix(0.0087890625,0,0,0.0087890625,11.9091796875,0)" xlink:href="#bj"/><use transform="matrix(0.0087890625,0,0,0.0087890625,23.818359375,0)" xlink:href="#aU"/><use transform="matrix(0.0087890625,0,0,0.0087890625,28.177734375,0)" xlink:href="#aJ"/><use transform="matrix(0.0087890625,0,0,0.0087890625,38.8125,0)" xlink:href="#bk"/><use transform="matrix(0.0087890625,0,0,0.0087890625,49.095703125,0)" xlink:href="#bb"/><use transform="matrix(0.0087890625,0,0,0.0087890625,53.455078125,0)" xlink:href="#aX"/><use transform="matrix(0.0087890625,0,0,0.0087890625,64.0986328125,0)" xlink:href="#aS"/><use transform="matrix(0.0087890625,0,0,0.0087890625,75.1201171875,0)" xlink:href="#aN"/><use transform="matrix(0.0087890625,0,0,0.0087890625,85.6142578125,0)" xlink:href="#bl"/><use transform="matrix(0.0087890625,0,0,0.0087890625,97.5234375,0)" xlink:href="#bl"/></g><g id="I"><use transform="matrix(0.008173828125000001,0,0,0.008173828125000001,0,0)" xlink:href="#aQ"/><use transform="matrix(0.008173828125000001,0,0,0.008173828125000001,10.061982421875001,0)" xlink:href="#aS"/><use transform="matrix(0.008173828125000001,0,0,0.008173828125000001,20.311962890625,0)" xlink:href="#aU"/><use transform="matrix(0.008173828125000001,0,0,0.008173828125000001,24.366181640625,0)" xlink:href="#aR"/><use transform="matrix(0.008173828125000001,0,0,0.008173828125000001,29.924384765625007,0)" xlink:href="#aI"/><use transform="matrix(0.008173828125000001,0,0,0.008173828125000001,39.32428710937501,0)" xlink:href="#aL"/></g><g id="J"><use transform="matrix(0.008173828125000001,0,0,0.008173828125000001,0,0)" xlink:href="#bg"/><use transform="matrix(0.008173828125000001,0,0,0.008173828125000001,9.857636718750001,0)" xlink:href="#aL"/><use transform="matrix(0.008173828125000001,0,0,0.008173828125000001,16.159658203125,0)" xlink:href="#aI"/><use transform="matrix(0.008173828125000001,0,0,0.008173828125000001,25.559560546875005,0)" xlink:href="#aJ"/><use transform="matrix(0.008173828125000001,0,0,0.008173828125000001,35.449892578125,0)" xlink:href="#aO"/><use transform="matrix(0.008173828125000001,0,0,0.008173828125000001,44.28580078125,0)" xlink:href="#aI"/><use transform="matrix(0.008173828125000001,0,0,0.008173828125000001,53.685703125,0)" xlink:href="#aK"/><use transform="matrix(0.008173828125000001,0,0,0.008173828125000001,63.412558593750006,0)" xlink:href="#bh"/><use transform="matrix(0.008173828125000001,0,0,0.008173828125000001,72.8124609375,0)" xlink:href="#aZ"/></g><g id="K"><use transform="matrix(0.008173828125000001,0,0,0.008173828125000001,0,0)" xlink:href="#aQ"/><use transform="matrix(0.008173828125000001,0,0,0.008173828125000001,10.061982421875001,0)" xlink:href="#aT"/><use transform="matrix(0.008173828125000001,0,0,0.008173828125000001,18.824326171875,0)" xlink:href="#bk"/><use transform="matrix(0.008173828125000001,0,0,0.008173828125000001,28.387705078125002,0)" xlink:href="#bb"/><use transform="matrix(0.008173828125000001,0,0,0.008173828125000001,32.441923828125,0)" xlink:href="#aX"/><use transform="matrix(0.008173828125000001,0,0,0.008173828125000001,42.3404296875,0)" xlink:href="#aU"/><use transform="matrix(0.008173828125000001,0,0,0.008173828125000001,46.394648437499995,0)" xlink:href="#aL"/></g><g id="L"><use transform="matrix(0.008173828125000001,0,0,0.008173828125000001,0,0)" xlink:href="#bg"/><use transform="matrix(0.008173828125000001,0,0,0.008173828125000001,9.857636718750001,0)" xlink:href="#aL"/><use transform="matrix(0.008173828125000001,0,0,0.008173828125000001,16.159658203125,0)" xlink:href="#aI"/><use transform="matrix(0.008173828125000001,0,0,0.008173828125000001,25.559560546875005,0)" xlink:href="#aJ"/><use transform="matrix(0.008173828125000001,0,0,0.008173828125000001,35.449892578125,0)" xlink:href="#aO"/><use transform="matrix(0.008173828125000001,0,0,0.008173828125000001,44.28580078125,0)" xlink:href="#aI"/><use transform="matrix(0.008173828125000001,0,0,0.008173828125000001,53.685703125,0)" xlink:href="#aK"/><use transform="matrix(0.008173828125000001,0,0,0.008173828125000001,63.412558593750006,0)" xlink:href="#bh"/><use transform="matrix(0.008173828125000001,0,0,0.008173828125000001,72.8124609375,0)" xlink:href="#aZ"/></g></defs></g></svg>